<?xml version="1.0" encoding="utf-8"?>
<!-- Generator: Adobe Illustrator 16.0.4, SVG Export Plug-In . SVG Version: 6.00 Build 0)  -->
<!DOCTYPE svg PUBLIC "-//W3C//DTD SVG 1.1//EN" "http://www.w3.org/Graphics/SVG/1.1/DTD/svg11.dtd">
<svg version="1.1" id="Capa_1" xmlns="http://www.w3.org/2000/svg" xmlns:xlink="http://www.w3.org/1999/xlink" x="0px" y="0px"
	 width="56px" height="56px" viewBox="72 72 56 56" enable-background="new 72 72 56 56" xml:space="preserve">
<g>
	<path fill="#282828" d="M100,72c-15.439,0-28,12.56-28,28c0,15.439,12.561,28,28,28c15.438,0,28-12.561,28-28
		C128,84.56,115.438,72,100,72z M100,125.847c-14.25,0-25.846-11.596-25.846-25.847S85.75,74.154,100,74.154
		c14.251,0,25.848,11.595,25.848,25.846S114.251,125.847,100,125.847z"/>
	<path fill="#282828" d="M113.463,98.923h-12.385V87.077c0-0.595-0.483-1.077-1.078-1.077c-0.594,0-1.077,0.481-1.077,1.077v11.847
		H86.539c-0.595,0-1.077,0.481-1.077,1.077s0.482,1.077,1.077,1.077h12.385V114c0,0.596,0.482,1.077,1.077,1.077
		c0.595,0,1.078-0.481,1.078-1.077v-12.923h12.385c0.593,0,1.076-0.481,1.076-1.077S114.056,98.923,113.463,98.923z"/>
</g>
</svg>
